<svg id="visual" viewBox="0 0 960 540" width="960" height="540" xmlns="http://www.w3.org/2000/svg" xmlns:xlink="http://www.w3.org/1999/xlink" version="1.1"><rect x="0" y="0" width="960" height="540" fill="#010101"></rect><defs><linearGradient id="grad1_0" x1="43.8%" y1="0%" x2="100%" y2="100%"><stop offset="14.444444444444446%" stop-color="#5047eb" stop-opacity="1"></stop><stop offset="85.55555555555554%" stop-color="#5047eb" stop-opacity="1"></stop></linearGradient></defs><defs><linearGradient id="grad1_1" x1="43.8%" y1="0%" x2="100%" y2="100%"><stop offset="14.444444444444446%" stop-color="#5047eb" stop-opacity="1"></stop><stop offset="85.55555555555554%" stop-color="#30276f" stop-opacity="1"></stop></linearGradient></defs><defs><linearGradient id="grad1_2" x1="43.8%" y1="0%" x2="100%" y2="100%"><stop offset="14.444444444444446%" stop-color="#010101" stop-opacity="1"></stop><stop offset="85.55555555555554%" stop-color="#30276f" stop-opacity="1"></stop></linearGradient></defs><defs><linearGradient id="grad2_0" x1="0%" y1="0%" x2="56.3%" y2="100%"><stop offset="14.444444444444446%" stop-color="#5047eb" stop-opacity="1"></stop><stop offset="85.55555555555554%" stop-color="#5047eb" stop-opacity="1"></stop></linearGradient></defs><defs><linearGradient id="grad2_1" x1="0%" y1="0%" x2="56.3%" y2="100%"><stop offset="14.444444444444446%" stop-color="#30276f" stop-opacity="1"></stop><stop offset="85.55555555555554%" stop-color="#5047eb" stop-opacity="1"></stop></linearGradient></defs><defs><linearGradient id="grad2_2" x1="0%" y1="0%" x2="56.3%" y2="100%"><stop offset="14.444444444444446%" stop-color="#30276f" stop-opacity="1"></stop><stop offset="85.55555555555554%" stop-color="#010101" stop-opacity="1"></stop></linearGradient></defs><g transform="translate(960, 0)"><path d="M0 297C-25.2 280.4 -50.5 263.9 -84.4 259.6C-118.2 255.4 -160.8 263.4 -174.6 240.3C-188.4 217.1 -173.5 162.7 -183.6 133.4C-193.8 104.1 -229 99.9 -252 81.9C-275.1 63.8 -286 31.9 -297 0L0 0Z" fill="#1e1838"></path><path d="M0 198C-16.8 187 -33.7 175.9 -56.2 173.1C-78.8 170.3 -107.2 175.6 -116.4 160.2C-125.6 144.7 -115.7 108.5 -122.4 89C-129.2 69.4 -152.6 66.6 -168 54.6C-183.4 42.6 -190.7 21.3 -198 0L0 0Z" fill="#4137ab"></path><path d="M0 99C-8.4 93.5 -16.8 88 -28.1 86.5C-39.4 85.1 -53.6 87.8 -58.2 80.1C-62.8 72.4 -57.8 54.2 -61.2 44.5C-64.6 34.7 -76.3 33.3 -84 27.3C-91.7 21.3 -95.3 10.6 -99 0L0 0Z" fill="#5047eb"></path></g><g transform="translate(0, 540)"><path d="M0 -297C23.1 -272.2 46.1 -247.4 79.1 -243.5C112.1 -239.6 154.9 -256.6 174.6 -240.3C194.2 -223.9 190.7 -174.1 195.8 -142.2C200.9 -110.4 214.7 -96.4 233 -75.7C251.3 -55 274.2 -27.5 297 0L0 0Z" fill="#1e1838"></path><path d="M0 -198C15.4 -181.5 30.8 -164.9 52.7 -162.3C74.7 -159.7 103.3 -171.1 116.4 -160.2C129.5 -149.3 127.1 -116.1 130.5 -94.8C133.9 -73.6 143.1 -64.3 155.3 -50.5C167.5 -36.7 182.8 -18.3 198 0L0 0Z" fill="#4137ab"></path><path d="M0 -99C7.7 -90.7 15.4 -82.5 26.4 -81.2C37.4 -79.9 51.6 -85.5 58.2 -80.1C64.7 -74.6 63.6 -58 65.3 -47.4C67 -36.8 71.6 -32.1 77.7 -25.2C83.8 -18.3 91.4 -9.2 99 0L0 0Z" fill="#5047eb"></path></g></svg>